<svg class="ldi-52qivk" width="200px"  height="200px"  xmlns="http://www.w3.org/2000/svg" xmlns:xlink="http://www.w3.org/1999/xlink" viewBox="0 0 100 100" preserveAspectRatio="xMidYMid" style="background: none;"><!--?xml version="1.0" encoding="utf-8"?--><!--Generator: Adobe Illustrator 21.0.0, SVG Export Plug-In . SVG Version: 6.00 Build 0)--><svg version="1.1" id="Layer_1" xmlns="http://www.w3.org/2000/svg" xmlns:xlink="http://www.w3.org/1999/xlink" x="0px" y="0px" viewBox="0 0 100 100" style="transform-origin: 50px 50px 0px;" xml:space="preserve" class=""><g class="" style="transform-origin: 50px 50px 0px; transform: scale(0.85);"><g class="" style="transform-origin: 50px 50px 0px;"><style type="text/css" class="ld ld-fade" style="transform-origin: 50px 50px 0px; animation-duration: 1s; animation-delay: -1s;">.st0{fill:#fff}.st1{fill:#0a0b0b}.st2{fill:#3aa6de}.st3{fill:#232323}</style><g class="ld ld-fade" style="transform-origin: 50px 50px 0px; animation-duration: 1s; animation-delay: -0.962963s;"><polygon class="st3" points="13.5,39.6 7.7,39.6 7.7,39.6 7.6,39.6 7.6,39.5 7.6,39.5 7.6,33.9 5,33.9 5,48.1 7.6,48.1 7.6,41.8 7.6,41.8 7.6,41.7 7.7,41.7 7.7,41.7 13.5,41.7 13.6,41.7 13.7,41.7 13.7,41.8 13.7,41.8 13.7,48.1 16.3,48.1 16.3,33.9 13.7,33.9 13.7,39.5 13.7,39.5 13.7,39.6 13.6,39.6 " fill="#232323" style="fill: rgb(35, 35, 35);"></polygon></g><g class="ld ld-fade" style="transform-origin: 50px 50px 0px; animation-duration: 1s; animation-delay: -0.925926s;"><path class="st3" d="M37.6,46.1c-1.1,0-2-0.4-2.7-1.2c-0.7-0.8-1-2.2-1-4c0-1.8,0.4-3.1,1-3.8c0.7-0.8,1.6-1.2,2.7-1.2 c0.8,0,1.5,0.2,2.1,0.7c0.5,0.4,0.9,1,1.1,1.7l2.6-0.6c-0.3-1-0.8-1.9-1.4-2.4c-1.1-1-2.5-1.5-4.2-1.5c-2,0-3.6,0.7-4.8,1.9 c-1.2,1.3-1.8,3.1-1.8,5.5c0,2.2,0.6,4,1.8,5.3c1.2,1.3,2.8,1.9,4.6,1.9c1.5,0,2.8-0.4,3.8-1.1c0.9-0.7,1.6-1.8,2.1-3.3l-2.5-0.8 c-0.3,1-0.7,1.8-1.2,2.2C39.1,45.9,38.4,46.1,37.6,46.1z" fill="#232323" style="fill: rgb(35, 35, 35);"></path></g><g class="ld ld-fade" style="transform-origin: 50px 50px 0px; animation-duration: 1s; animation-delay: -0.888889s;"><polygon class="st3" points="51.9,39.4 51.8,39.4 51.9,39.3 51.9,39.3 57.1,33.9 53.6,33.9 47.7,40.3 47.6,40.5 47.5,40.6 47.5,40.4 47.5,40.3 47.5,33.9 44.9,33.9 44.9,48.1 47.5,48.1 47.5,43.8 47.5,43.8 47.5,43.8 47.5,43.8 47.5,43.7 49.9,41.3 50,41.2 50.1,41.2 50.1,41.2 50.1,41.3 50.2,41.3 54.1,48.1 57.5,48.1 51.9,39.4 " fill="#232323" style="fill: rgb(35, 35, 35);"></polygon></g><g class="ld ld-fade" style="transform-origin: 50px 50px 0px; animation-duration: 1s; animation-delay: -0.851852s;"><path class="st3" d="M63.1,48.3c1.2,0,2.3-0.2,3.1-0.5c0.8-0.3,1.4-0.9,1.9-1.6c0.4-0.7,0.7-1.5,0.7-2.2c0-0.9-0.2-1.6-0.6-2.2 c-0.4-0.6-0.9-1.1-1.5-1.4c-0.7-0.4-1.7-0.7-3.1-1c-1.4-0.3-2.4-0.7-2.8-1c-0.3-0.3-0.5-0.6-0.5-1c0-0.4,0.2-0.8,0.5-1 c0.5-0.4,1.2-0.6,2.1-0.6c0.9,0,1.5,0.2,2,0.5c0.4,0.3,0.7,0.9,0.8,1.6l2.6-0.1c-0.1-1.2-0.5-2.2-1.4-2.9c-0.9-0.8-2.2-1.2-4-1.2 c-1.1,0-2,0.2-2.8,0.5c-0.8,0.3-1.3,0.8-1.7,1.4c-0.4,0.6-0.6,1.3-0.6,2c0,1.1,0.4,2,1.3,2.8c0.6,0.5,1.7,1,3.2,1.4 c1.2,0.3,2,0.5,2.4,0.6c0.5,0.2,0.9,0.4,1.1,0.7c0.2,0.3,0.3,0.6,0.3,1c0,0.6-0.3,1.1-0.8,1.5c-0.5,0.4-1.3,0.6-2.2,0.6 c-0.9,0-1.7-0.2-2.2-0.7c-0.5-0.4-0.9-1.1-1.1-2.1l-2.5,0.2c0.2,1.5,0.8,2.6,1.7,3.4C59.9,47.9,61.3,48.3,63.1,48.3z" fill="#232323" style="fill: rgb(35, 35, 35);"></path></g><g class="ld ld-fade" style="transform-origin: 50px 50px 0px; animation-duration: 1s; animation-delay: -0.814815s;"><polygon class="st3" points="13.5,57.6 7.7,57.6 7.7,57.6 7.6,57.6 7.6,57.6 7.6,57.5 7.6,51.9 5,51.9 5,66.1 7.6,66.1 7.6,59.9 7.6,59.8 7.6,59.8 7.7,59.8 7.7,59.8 13.5,59.8 13.6,59.8 13.7,59.8 13.7,59.8 13.7,59.9 13.7,66.1 16.3,66.1 16.3,51.9 13.7,51.9 13.7,57.5 13.7,57.6 13.7,57.6 13.6,57.6 " fill="#232323" style="fill: rgb(35, 35, 35);"></polygon></g><g class="ld ld-fade" style="transform-origin: 50px 50px 0px; animation-duration: 1s; animation-delay: -0.777778s;"><path class="st3" d="M37.6,64.2c-1.1,0-2-0.4-2.7-1.2c-0.7-0.8-1-2.2-1-4c0-1.8,0.4-3.1,1-3.8c0.7-0.8,1.6-1.2,2.7-1.2 c0.8,0,1.5,0.2,2.1,0.7c0.5,0.4,0.9,1,1.1,1.7l2.6-0.6c-0.3-1-0.8-1.9-1.4-2.4c-1.1-1-2.5-1.5-4.2-1.5c-2,0-3.6,0.7-4.8,1.9 c-1.2,1.3-1.8,3.1-1.8,5.5c0,2.2,0.6,4,1.8,5.3c1.2,1.3,2.8,1.9,4.6,1.9c1.5,0,2.8-0.4,3.8-1.1c0.9-0.7,1.6-1.8,2.1-3.3l-2.5-0.8 c-0.3,1-0.7,1.8-1.2,2.2C39.1,63.9,38.4,64.2,37.6,64.2z" fill="#232323" style="fill: rgb(35, 35, 35);"></path></g><g class="ld ld-fade" style="transform-origin: 50px 50px 0px; animation-duration: 1s; animation-delay: -0.740741s;"><polygon class="st3" points="51.9,57.4 51.8,57.4 51.9,57.4 51.9,57.3 57.1,51.9 53.6,51.9 47.7,58.4 47.6,58.5 47.5,58.6 47.5,58.5 47.5,58.3 47.5,51.9 44.9,51.9 44.9,66.1 47.5,66.1 47.5,61.9 47.5,61.8 47.5,61.8 47.5,61.8 47.5,61.8 49.9,59.3 50,59.2 50.1,59.2 50.1,59.3 50.1,59.3 50.2,59.4 54.1,66.1 57.5,66.1 51.9,57.5 " fill="#232323" style="fill: rgb(35, 35, 35);"></polygon></g><g class="ld ld-fade" style="transform-origin: 50px 50px 0px; animation-duration: 1s; animation-delay: -0.703704s;"><polygon class="st3" points="61.4,64 61.4,64 61.4,63.9 61.4,63.9 61.4,59.8 61.4,59.8 61.4,59.7 61.4,59.7 61.5,59.7 68.7,59.7 68.7,57.6 61.5,57.6 61.4,57.6 61.4,57.6 61.4,57.5 61.4,57.5 61.4,54.2 61.4,54.1 61.4,54.1 61.4,54.1 61.5,54.1 69.2,54.1 69.2,51.9 58.8,51.9 58.8,66.1 69.5,66.1 69.5,64 61.5,64 " fill="#232323" style="fill: rgb(35, 35, 35);"></polygon></g><g class="ld ld-fade" style="transform-origin: 50px 50px 0px; animation-duration: 1s; animation-delay: -0.666667s;"><path class="st3" d="M80.5,61.2c-0.4-0.4-0.9-0.8-1.5-1.2L78.9,60l-0.2-0.1l-0.1-0.1l0.1,0l0.2,0l0.1,0c1.2-0.2,2.2-0.6,2.8-1.3 c0.6-0.7,0.9-1.5,0.9-2.6c0-0.8-0.2-1.6-0.6-2.2c-0.4-0.6-0.9-1.1-1.6-1.3c-0.7-0.3-1.8-0.4-3.3-0.4h-6v14.2h2.6v-5.9v-0.1v0h0h0.1 h0.6c0.7,0,1.2,0.1,1.5,0.2c0.3,0.1,0.6,0.3,0.9,0.6c0.3,0.3,0.8,1,1.6,2.1l2.1,3.1h3.1l-1.6-2.6C81.5,62.4,80.9,61.6,80.5,61.2z M76.1,58.1h-2.2h-0.1h0v0v-0.1v-3.7v-0.1v0h0h0.1h2.3c1.2,0,1.9,0,2.2,0.1c0.5,0.1,0.9,0.3,1.2,0.6c0.3,0.3,0.4,0.8,0.4,1.3 c0,0.5-0.1,0.9-0.3,1.2c-0.2,0.3-0.5,0.5-0.9,0.7C78.4,58,77.5,58.1,76.1,58.1z" fill="#232323" style="fill: rgb(35, 35, 35);"></path></g><g class="ld ld-fade" style="transform-origin: 50px 50px 0px; animation-duration: 1s; animation-delay: -0.62963s;"><path class="st3" d="M92.9,58.4c-0.7-0.4-1.7-0.7-3.1-1c-1.4-0.3-2.4-0.7-2.8-1c-0.3-0.3-0.5-0.6-0.5-1c0-0.4,0.2-0.8,0.5-1 c0.5-0.4,1.2-0.6,2.1-0.6c0.9,0,1.5,0.2,2,0.5c0.4,0.3,0.7,0.9,0.8,1.6l2.6-0.1c-0.1-1.2-0.5-2.2-1.4-2.9c-0.9-0.8-2.2-1.2-4-1.2 c-1.1,0-2,0.2-2.8,0.5c-0.8,0.3-1.3,0.8-1.7,1.4c-0.4,0.6-0.6,1.3-0.6,2c0,1.1,0.4,2,1.3,2.8c0.6,0.5,1.7,1,3.2,1.4 c1.2,0.3,2,0.5,2.4,0.6c0.5,0.2,0.9,0.4,1.1,0.7c0.2,0.3,0.3,0.6,0.3,1c0,0.6-0.3,1.1-0.8,1.5c-0.5,0.4-1.3,0.6-2.2,0.6 c-0.9,0-1.7-0.2-2.2-0.7c-0.5-0.4-0.9-1.1-1.1-2.1l-2.5,0.2c0.2,1.5,0.8,2.6,1.7,3.4c0.9,0.8,2.3,1.2,4.1,1.2c1.2,0,2.3-0.2,3.1-0.5 c0.8-0.3,1.4-0.9,1.9-1.6c0.4-0.7,0.7-1.5,0.7-2.2c0-0.9-0.2-1.6-0.6-2.2C94.1,59.2,93.6,58.7,92.9,58.4z" fill="#232323" style="fill: rgb(35, 35, 35);"></path></g><g class="ld ld-fade" style="transform-origin: 50px 50px 0px; animation-duration: 1s; animation-delay: -0.592593s;"><path class="st3" d="M79.3,33.9h-2.5l-5.5,14.2h2.4L79.3,33.9z" fill="#232323" style="fill: rgb(35, 35, 35);"></path></g><g class="" style="transform-origin: 50px 50px 0px;"><g class="ld ld-fade" style="transform-origin: 50px 50px 0px; animation-duration: 1s; animation-delay: -0.555556s;"><polygon class="st3" points="21.4,44.8 25.7,33.9 22.9,33.9 17.4,48.1 20.1,48.1 21.4,44.8 	" fill="#232323" style="fill: rgb(35, 35, 35);"></polygon></g><g class="ld ld-fade" style="transform-origin: 50px 50px 0px; animation-duration: 1s; animation-delay: -0.518519s;"><polygon class="st3" points="27,36.9 25.7,40.3 26.5,42.5 26.5,42.6 26.5,42.6 26.5,42.6 26.4,42.6 24.7,42.6 23.9,44.8 27.3,44.8 27.3,44.8 27.4,44.8 27.4,44.8 27.4,44.8 27.4,44.9 28.6,48.1 31.5,48.1 	" fill="#232323" style="fill: rgb(35, 35, 35);"></polygon></g></g><g class="" style="transform-origin: 50px 50px 0px;"><g class="ld ld-fade" style="transform-origin: 50px 50px 0px; animation-duration: 1s; animation-delay: -0.481481s;"><polygon class="st3" points="21.4,62.8 25.7,51.9 22.9,51.9 17.4,66.1 20.2,66.1 21.4,62.8 	" fill="#232323" style="fill: rgb(35, 35, 35);"></polygon></g><g class="ld ld-fade" style="transform-origin: 50px 50px 0px; animation-duration: 1s; animation-delay: -0.444444s;"><polygon class="st3" points="27,55 25.7,58.3 26.5,60.5 26.5,60.6 26.5,60.7 26.5,60.7 26.4,60.7 24.7,60.7 23.9,62.8 27.3,62.8 27.3,62.8 27.4,62.8 27.4,62.8 27.4,62.9 27.4,62.9 28.6,66.1 31.5,66.1 	" fill="#232323" style="fill: rgb(35, 35, 35);"></polygon></g></g><metadata xmlns:d="https://loading.io/stock/" class="ld ld-fade" style="transform-origin: 50px 50px 0px; animation-duration: 1s; animation-delay: -0.407407s;">
<d:name class="ld ld-fade" style="transform-origin: 50px 50px 0px; animation-duration: 1s; animation-delay: -0.37037s;">hacks hackers</d:name>
<d:tags class="ld ld-fade" style="transform-origin: 50px 50px 0px; animation-duration: 1s; animation-delay: -0.333333s;">hacks hackers,brand copy</d:tags>
<d:license class="ld ld-fade" style="transform-origin: 50px 50px 0px; animation-duration: 1s; animation-delay: -0.296296s;">cc-by</d:license>
<d:slug class="ld ld-fade" style="transform-origin: 50px 50px 0px; animation-duration: 1s; animation-delay: -0.259259s;">52qivk</d:slug>
</metadata></g></g><style type="text/css" class="ld ld-fade" style="transform-origin: 50px 50px 0px; animation-duration: 1s; animation-delay: -0.222222s;">path,ellipse,circle,rect,polygon,polyline,line { stroke-width: 0; }@keyframes ld-fade {
  0% {
    opacity: 1;
  }
  100% {
    opacity: 0;
  }
}
@-webkit-keyframes ld-fade {
  0% {
    opacity: 1;
  }
  100% {
    opacity: 0;
  }
}
.ld.ld-fade {
  -webkit-animation: ld-fade 1s infinite linear;
  animation: ld-fade 1s infinite linear;
}
</style></svg></svg>